<?xml version="1.0" standalone="no"?><!DOCTYPE svg PUBLIC "-//W3C//DTD SVG 1.1//EN" "http://www.w3.org/Graphics/SVG/1.1/DTD/svg11.dtd"><svg t="1624509567176" class="icon" viewBox="0 0 1024 1024" version="1.1" xmlns="http://www.w3.org/2000/svg" p-id="3832" xmlns:xlink="http://www.w3.org/1999/xlink" width="200" height="200"><defs><style type="text/css"></style></defs><path d="M699.16 562.338H523.17V319.356c0-18.744-13.74-33.922-30.7-33.922-16.962 0-30.716 15.178-30.716 33.922v270.477c0 0.59 0.014 1.175 0.04 1.759-0.025 0.485-0.04 0.973-0.04 1.463 0 8.286 3.632 15.797 9.527 21.32 5.512 5.807 12.971 9.38 21.19 9.38 0.486 0 0.97-0.015 1.45-0.04 0.582 0.026 1.166 0.04 1.754 0.04H699.16c18.745 0 33.922-13.74 33.922-30.699s-15.177-30.718-33.921-30.718zM512 55.44c-249.753 0-452.205 202.45-452.205 452.205S262.247 959.85 512 959.85c249.738 0 452.205-202.45 452.205-452.205S761.738 55.44 512 55.44z m0 837.417c-212.741 0-385.212-172.47-385.212-385.212 0-212.758 172.47-385.213 385.212-385.213s385.212 172.455 385.212 385.213c0 212.741-172.472 385.212-385.212 385.212z" p-id="3833" fill="#515151"></path></svg>